<?xml version="1.0" standalone="no"?>
<!DOCTYPE svg PUBLIC "-//W3C//DTD SVG 20010904//EN"
 "http://www.w3.org/TR/2001/REC-SVG-20010904/DTD/svg10.dtd">
<svg version="1.0" xmlns="http://www.w3.org/2000/svg"
 width="221.000000pt" height="225.000000pt" viewBox="0 0 221.000000 225.000000"
 preserveAspectRatio="xMidYMid meet">

<g transform="translate(0.000000,225.000000) scale(0.100000,-0.100000)"
fill="#199a90" stroke="none">
<path d="M823 2229 c-18 -5 -50 -26 -72 -47 -36 -35 -44 -54 -126 -307 -48
-148 -123 -380 -167 -515 -44 -135 -93 -288 -108 -340 -16 -52 -32 -103 -35
-113 -7 -16 9 -17 276 -15 l284 3 46 140 c25 77 56 174 68 215 12 41 35 113
50 160 16 47 31 97 35 113 3 15 12 27 20 27 17 0 16 2 127 -347 51 -161 95
-297 99 -303 5 -8 94 -12 283 -13 265 -2 277 -1 277 17 0 18 -17 74 -130 421
-51 154 -142 437 -236 725 -32 100 -55 135 -106 162 -41 22 -53 23 -298 25
-143 1 -269 -2 -287 -8z m547 -65 c24 -10 46 -28 54 -43 14 -27 159 -462 292
-874 42 -132 77 -253 78 -270 l1 -32 -215 0 -215 1 -56 169 c-31 94 -80 244
-109 335 -68 217 -72 230 -86 241 -33 27 -40 11 -219 -553 -31 -98 -61 -181
-68 -185 -16 -10 -427 -11 -433 -1 -3 4 -1 23 5 41 6 17 38 118 72 222 33 105
69 215 79 245 10 30 46 143 80 250 82 260 128 390 146 418 30 46 62 51 316 52
197 0 245 -3 278 -16z"/>
<path d="M300 807 c0 -2 -18 -55 -39 -118 -170 -494 -231 -673 -231 -681 0 -4
12 -8 28 -8 26 0 29 5 95 202 108 319 182 532 190 546 12 17 492 18 504 0 4
-7 56 -104 114 -217 59 -112 114 -208 124 -213 27 -16 45 10 156 222 55 107
106 201 111 208 8 9 68 12 257 10 l246 -3 41 -120 c116 -346 197 -583 206
-608 8 -21 17 -27 39 -27 16 0 29 1 29 3 0 6 -251 734 -269 780 l-11 27 -287
0 -288 -1 -101 -192 c-55 -105 -107 -193 -115 -195 -9 -2 -32 31 -63 90 -27
51 -73 139 -103 196 l-55 102 -289 0 c-159 0 -289 -2 -289 -3z"/>
<path d="M636 263 c-8 -27 -31 -92 -50 -147 -20 -54 -36 -102 -36 -107 0 -5
13 -9 28 -9 25 0 30 5 41 43 36 124 57 152 82 105 6 -13 30 -51 52 -85 34 -53
44 -63 68 -63 16 0 29 4 29 9 0 4 -34 62 -76 127 -42 66 -84 131 -93 146 -9
16 -19 28 -23 28 -4 0 -14 -21 -22 -47z"/>
<path d="M1506 273 c-25 -40 -148 -239 -160 -260 -5 -9 2 -13 26 -13 31 0 37
6 87 85 29 47 57 85 61 85 14 0 27 -24 40 -75 17 -66 36 -95 61 -95 18 0 20 5
16 27 -8 46 -91 283 -99 283 -4 0 -19 -17 -32 -37z"/>
</g>
</svg>
