<?xml version="1.0" standalone="no"?>
<!DOCTYPE svg PUBLIC "-//W3C//DTD SVG 20010904//EN"
 "http://www.w3.org/TR/2001/REC-SVG-20010904/DTD/svg10.dtd">
<svg version="1.0" xmlns="http://www.w3.org/2000/svg" viewBox="0 0 1068.000000 252.000000"
 preserveAspectRatio="xMidYMid meet">

<g transform="translate(0.000000,252.000000) scale(0.100000,-0.100000)"
fill="#fff" stroke="none">
<path d="M1255 2009 c-12 -6 -26 -18 -32 -27 -5 -10 -59 -168 -118 -352 -59
-184 -110 -341 -112 -347 -4 -10 29 -13 143 -13 l149 0 69 220 c38 121 71 218
74 216 2 -3 34 -100 71 -218 l67 -213 147 -3 c81 -1 147 0 147 4 0 12 -221
688 -231 707 -6 10 -21 22 -35 27 -33 13 -313 12 -339 -1z"/>
<path d="M2425 1260 c0 -421 1 -593 2 -383 2 211 2 555 0 765 -1 211 -2 39 -2
-382z"/>
<path d="M2782 1773 c3 -212 6 -254 21 -288 41 -91 113 -130 237 -130 120 1
197 49 229 144 7 22 11 122 11 277 l0 244 -60 0 -60 0 0 -242 c0 -223 -2 -246
-20 -275 -33 -55 -137 -67 -194 -22 -37 29 -46 96 -46 329 l0 210 -61 0 -61 0
4 -247z"/>
<path d="M3940 1970 l0 -50 55 0 55 0 0 50 0 50 -55 0 -55 0 0 -50z"/>
<path d="M5770 1970 l0 -50 55 0 55 0 0 50 0 50 -55 0 -55 0 0 -50z"/>
<path d="M6290 1904 l0 -115 -31 22 c-18 12 -52 24 -79 27 -124 12 -212 -111
-195 -273 16 -158 121 -246 240 -201 24 10 49 24 57 33 11 14 13 13 18 -8 5
-21 13 -24 53 -27 l47 -3 0 330 0 331 -55 0 -55 0 0 -116z m-29 -171 l29 -17
0 -118 0 -118 -32 -20 c-39 -24 -69 -25 -107 -6 -74 39 -80 230 -8 281 29 20
82 19 118 -2z"/>
<path d="M7250 1905 l0 -116 -28 21 c-65 48 -160 34 -216 -31 -44 -53 -60
-110 -54 -206 8 -127 62 -205 152 -218 48 -8 107 7 126 31 18 20 40 17 40 -6
0 -17 7 -20 45 -20 l45 0 0 330 0 330 -55 0 -55 0 0 -115z m-30 -170 l30 -16
0 -119 c0 -116 -1 -119 -26 -139 -50 -39 -118 -21 -149 39 -17 33 -20 145 -6
183 24 62 89 84 151 52z"/>
<path d="M3585 1816 c-60 -31 -65 -32 -65 -6 0 17 -7 20 -50 20 l-50 0 0 -235
0 -235 55 0 55 0 0 168 c0 166 0 169 24 191 33 31 106 40 129 16 15 -14 17
-41 17 -196 l0 -179 55 0 55 0 0 185 c0 197 -6 231 -49 269 -35 32 -116 33
-176 2z"/>
<path d="M4686 1830 c-41 -13 -93 -66 -112 -116 -12 -33 -15 -66 -12 -138 3
-86 7 -100 34 -138 44 -63 85 -83 169 -83 77 1 141 28 170 71 14 21 12 24 -21
43 -43 26 -43 26 -70 0 -26 -25 -93 -36 -122 -20 -25 13 -46 51 -57 99 l-7 32
146 0 146 0 0 43 c0 92 -47 174 -117 203 -36 15 -103 17 -147 4z m128 -92 c15
-13 29 -38 32 -55 l7 -33 -90 0 c-49 0 -92 3 -95 6 -11 10 11 69 33 87 30 24
82 22 113 -5z"/>
<path d="M5215 1829 c-11 -6 -32 -25 -47 -42 l-28 -31 0 37 0 37 -50 0 -50 0
0 -235 0 -235 55 0 55 0 0 149 0 149 36 31 c20 18 49 34 65 38 28 5 29 8 29
59 0 49 -2 54 -22 54 -13 0 -32 -5 -43 -11z"/>
<path d="M5403 1819 c-52 -25 -78 -74 -70 -131 7 -53 38 -85 117 -120 101 -45
109 -50 115 -68 8 -27 -4 -47 -36 -60 -37 -16 -70 -7 -112 29 l-33 29 -37 -28
-37 -27 39 -36 c48 -44 108 -61 176 -52 96 12 135 55 135 146 0 44 -4 55 -32
83 -18 18 -60 43 -93 55 -82 31 -105 47 -105 76 0 48 66 59 123 21 l35 -24 31
32 31 32 -27 20 c-65 48 -152 57 -220 23z"/>
<path d="M6585 1822 c-22 -11 -50 -30 -62 -43 l-22 -24 40 -28 c21 -16 39 -23
39 -18 0 18 63 51 98 51 40 0 72 -30 72 -69 0 -27 -3 -29 -62 -40 -86 -17
-165 -56 -189 -95 -25 -41 -25 -111 0 -152 35 -58 129 -68 216 -24 37 19 37
19 42 -1 4 -16 14 -19 57 -19 l51 0 -5 187 c-6 204 -13 235 -66 269 -40 26
-159 30 -209 6z m165 -286 c0 -51 -2 -56 -32 -74 -74 -46 -128 -33 -128 29 0
47 55 83 153 98 4 0 7 -23 7 -53z"/>
<path d="M7564 1821 c-82 -37 -119 -118 -112 -245 7 -126 50 -192 142 -217 75
-20 183 8 231 61 19 22 19 22 -5 41 -42 31 -58 32 -91 5 -73 -62 -169 -10
-169 90 l0 24 140 0 140 0 0 54 c0 154 -140 249 -276 187z m147 -90 c17 -17
29 -40 29 -55 l0 -26 -90 0 c-83 0 -90 2 -90 20 0 81 93 119 151 61z"/>
<path d="M3940 1595 l0 -235 55 0 55 0 0 235 0 235 -55 0 -55 0 0 -235z"/>
<path d="M4140 1823 c0 -5 29 -109 64 -233 l62 -225 60 -3 59 -3 66 233 66
233 -50 3 c-28 2 -53 -1 -56 -7 -4 -5 -22 -72 -40 -148 -18 -76 -37 -142 -41
-146 -4 -5 -25 61 -46 147 l-37 156 -54 0 c-29 0 -53 -3 -53 -7z"/>
<path d="M5770 1595 l0 -235 55 0 55 0 0 235 0 235 -55 0 -55 0 0 -235z"/>
<path d="M969 1193 c-10 -25 -74 -212 -194 -566 l-44 -128 151 3 151 3 68 204
c38 112 70 205 72 207 1 2 40 -57 85 -130 87 -141 92 -146 169 -146 74 0 85
10 171 150 44 72 82 128 85 123 2 -4 35 -99 71 -210 l68 -203 150 0 c116 0
149 3 145 13 -2 6 -58 168 -123 359 l-119 348 -155 0 -156 0 -53 -109 c-88
-178 -76 -176 -157 -22 l-69 131 -153 0 -152 0 -11 -27z"/>
<path d="M2867 862 c-48 -169 -90 -317 -94 -329 -5 -22 -3 -23 55 -23 l60 0
18 70 18 70 107 0 107 0 18 -70 18 -70 58 0 c32 0 58 4 58 10 0 7 -147 535
-176 633 -5 14 -18 17 -82 17 l-77 0 -88 -308z m207 35 c20 -75 36 -139 36
-142 0 -3 -34 -5 -75 -5 -88 0 -85 -6 -51 118 14 48 30 107 36 131 6 23 13 41
15 40 1 -2 19 -66 39 -142z"/>
<path d="M6120 1120 l0 -50 55 0 55 0 0 50 0 50 -55 0 -55 0 0 -50z"/>
<path d="M9970 1120 l0 -50 55 0 55 0 0 50 0 50 -55 0 -55 0 0 -50z"/>
<path d="M3900 835 l0 -325 55 0 55 0 0 174 0 174 35 22 c23 14 47 20 72 18
57 -5 63 -25 63 -220 l0 -168 56 0 56 0 -4 193 c-3 168 -6 196 -23 224 -38 65
-118 80 -201 38 -27 -14 -50 -25 -51 -25 -2 0 -3 50 -3 110 l0 110 -55 0 -55
0 0 -325z"/>
<path d="M5630 835 l0 -325 40 0 c34 0 41 4 46 24 l6 24 34 -23 c95 -64 204
-34 255 72 34 69 34 207 0 276 -48 99 -142 132 -233 83 l-48 -25 0 109 0 110
-50 0 -50 0 0 -325z m249 49 c32 -23 51 -74 51 -139 0 -129 -76 -191 -167
-135 l-33 20 0 115 0 115 33 20 c39 24 85 26 116 4z"/>
<path d="M6670 835 l0 -325 55 0 55 0 2 258 3 257 64 -225 c35 -124 68 -240
73 -257 8 -31 11 -33 56 -33 l47 0 69 245 c38 135 73 250 78 257 4 7 8 -103 8
-244 l0 -258 50 0 50 0 0 325 0 325 -87 0 -88 0 -59 -218 c-33 -119 -62 -221
-66 -225 -4 -4 -30 77 -58 180 -29 103 -57 205 -62 226 l-11 37 -89 0 -90 0 0
-325z"/>
<path d="M9450 835 l0 -325 45 0 c37 0 45 3 45 18 0 31 11 33 42 7 85 -72 223
-24 262 92 22 65 21 196 -3 248 -48 106 -174 148 -255 84 l-26 -20 0 110 0
111 -55 0 -55 0 0 -325z m262 42 c49 -45 57 -192 15 -248 -32 -42 -99 -51
-141 -18 -25 20 -26 23 -26 137 0 117 0 117 28 134 40 25 94 23 124 -5z"/>
<path d="M3546 961 l-56 -30 0 25 c0 22 -4 24 -50 24 l-50 0 0 -235 0 -235 55
0 55 0 0 174 0 174 27 17 c15 10 45 20 68 23 69 7 75 -9 75 -215 l0 -173 56 0
56 0 -4 193 c-3 217 -12 247 -73 273 -52 21 -97 17 -159 -15z"/>
<path d="M4503 979 c-49 -14 -101 -74 -120 -138 -18 -63 -13 -167 10 -222 35
-84 115 -127 215 -115 63 7 97 23 135 63 l27 29 -39 22 -39 22 -38 -25 c-42
-29 -89 -32 -123 -9 -25 18 -51 71 -51 104 0 19 6 20 145 20 l145 0 0 28 c-2
166 -120 263 -267 221z m110 -80 c26 -12 44 -40 49 -74 3 -19 -3 -20 -89 -23
-103 -3 -108 1 -78 58 25 48 68 62 118 39z"/>
<path d="M5030 974 c-19 -8 -42 -22 -52 -31 -17 -15 -18 -14 -18 10 0 26 -3
27 -50 27 l-50 0 0 -235 0 -235 55 0 55 0 2 172 3 172 34 23 c41 28 82 30 104
5 15 -16 17 -45 17 -195 l0 -177 55 0 55 0 0 173 0 172 33 23 c36 24 86 29
105 10 8 -8 12 -66 12 -195 l0 -183 55 0 55 0 0 199 c0 189 -1 200 -23 232
-13 19 -36 37 -54 42 -45 13 -116 0 -159 -29 -36 -25 -37 -25 -58 -6 -49 45
-111 54 -176 26z"/>
<path d="M7516 980 c-42 -13 -93 -67 -113 -119 -23 -61 -23 -172 0 -233 33
-86 116 -136 209 -125 108 13 168 87 176 216 7 128 -28 208 -108 249 -46 23
-110 28 -164 12z m116 -91 c30 -16 48 -70 48 -144 0 -74 -18 -128 -48 -144
-32 -17 -76 -13 -100 9 -54 51 -55 217 -1 271 21 21 69 25 101 8z"/>
<path d="M8044 976 c-17 -8 -40 -27 -52 -42 l-21 -29 -1 38 0 37 -50 0 -50 0
0 -235 0 -235 55 0 55 0 0 149 c0 146 0 149 26 174 14 14 41 31 60 37 33 11
34 13 34 66 0 59 -4 62 -56 40z"/>
<path d="M8860 979 c-14 -5 -35 -20 -47 -31 l-23 -21 0 26 c0 26 -2 27 -50 27
l-50 0 0 -235 0 -235 55 0 55 0 0 174 0 174 34 21 c37 23 86 27 104 9 8 -8 12
-66 12 -195 l0 -183 55 0 55 0 2 172 3 172 34 23 c44 30 85 30 105 1 13 -18
16 -55 16 -195 l0 -173 55 0 55 0 0 178 c0 199 -8 240 -51 276 -47 40 -133 32
-201 -18 l-28 -20 -30 29 c-23 22 -41 29 -82 32 -29 1 -64 -2 -78 -8z"/>
<path d="M6120 745 l0 -235 55 0 55 0 0 235 0 235 -55 0 -55 0 0 -235z"/>
<path d="M8182 783 c3 -187 4 -200 26 -230 43 -60 134 -67 220 -17 l42 25 0
-26 c0 -23 3 -25 50 -25 l50 0 0 235 0 235 -55 0 -55 0 -2 -172 -3 -172 -34
-23 c-44 -30 -95 -30 -115 -1 -13 18 -16 55 -16 195 l0 173 -56 0 -56 0 4
-197z"/>
<path d="M9970 745 l0 -235 55 0 55 0 0 235 0 235 -55 0 -55 0 0 -235z"/>
</g>
</svg>
