<svg xmlns="http://www.w3.org/2000/svg" version="1.0" preserveAspectRatio="xMidYMid meet" viewBox="30.11 185 439.89 129.91">

<g transform="translate(0.000000,500.000000) scale(0.100000,-0.100000)" fill="#fff" stroke="none">
<path d="M440 3102 c0 -62 11 -75 114 -136 101 -61 119 -64 181 -31 78 42 152 93 159 111 10 25 7 104 -4 104 -5 0 -57 -24 -115 -52 l-106 -53 -92 47 c-50 25 -102 49 -114 53 -22 6 -23 3 -23 -43z"/>
<path d="M502 2741 c-45 -12 -77 -44 -91 -92 -17 -56 -7 -83 27 -75 15 4 83 9 152 12 117 5 128 4 170 -18 55 -28 70 -56 70 -130 l0 -58 -117 0 c-189 0 -272 -20 -344 -82 -61 -53 -85 -169 -55 -272 38 -131 149 -183 369 -174 139 6 210 31 260 89 52 61 57 90 57 360 0 236 -1 246 -24 295 -46 98 -143 142 -331 149 -60 2 -125 1 -143 -4z m328 -571 c0 -128 -39 -164 -180 -165 -130 0 -180 40 -167 136 11 81 46 97 225 98 l122 1 0 -70z"/>
<path d="M1470 2735 c-139 -31 -199 -85 -231 -206 -16 -62 -19 -108 -19 -318 0 -221 2 -250 19 -281 23 -45 55 -61 111 -58 l45 3 5 305 c4 270 7 309 23 333 29 45 72 61 167 61 98 0 140 -17 170 -67 18 -30 20 -52 20 -287 0 -230 2 -259 19 -290 23 -45 55 -61 111 -58 l45 3 0 320 0 320 -33 67 c-18 37 -46 78 -63 92 -70 59 -264 89 -389 61z"/>
<path d="M2840 2736 c-115 -27 -169 -68 -212 -161 -22 -48 -23 -62 -26 -327 -3 -260 -2 -279 17 -316 23 -45 61 -65 117 -60 l39 3 5 310 c5 337 6 342 63 372 44 23 160 23 205 -1 57 -30 62 -56 62 -323 0 -131 5 -256 10 -277 13 -57 39 -78 103 -84 l54 -4 6 307 c7 339 10 353 73 385 42 21 163 19 197 -3 60 -39 62 -47 67 -342 4 -239 7 -274 23 -298 21 -33 54 -47 108 -47 l40 0 -3 338 -3 337 -28 57 c-47 96 -138 140 -292 142 -110 1 -178 -21 -231 -75 l-36 -37 -33 37 c-18 20 -54 44 -81 54 -63 24 -174 30 -244 13z"/>
<path d="M4200 2740 c-44 -11 -87 -58 -96 -104 -11 -60 -2 -68 58 -59 29 4 100 8 158 8 162 0 196 -23 207 -139 l6 -64 -159 -4 c-133 -4 -168 -9 -217 -27 -114 -44 -156 -106 -157 -227 0 -183 88 -261 308 -272 77 -3 126 0 188 13 76 16 90 23 129 60 67 66 75 105 75 369 0 122 -5 237 -10 257 -23 84 -93 150 -185 174 -71 19 -255 28 -305 15z m330 -547 c-1 -70 -15 -123 -43 -150 -34 -34 -135 -51 -210 -34 -75 16 -102 47 -101 112 1 94 47 118 227 119 l127 0 0 -47z"/>
<path d="M2192 2722 c-10 -7 -12 -89 -10 -395 l3 -387 32 -32 c27 -27 41 -32 92 -36 l59 -4 7 88 c5 49 5 224 1 389 -6 267 -8 303 -25 325 -33 46 -122 75 -159 52z"/>
</g>
</svg>